<svg width="32" height="34" viewBox="0 0 32 34" fill="none" xmlns="http://www.w3.org/2000/svg">
<path d="M29.6338 0.903301H2.3662C2.05968 0.899044 1.75533 0.955209 1.47053 1.06859C1.18572 1.18197 0.926041 1.35034 0.706314 1.56409C0.486586 1.77783 0.311117 2.03277 0.189927 2.31434C0.0687362 2.59591 0.00419862 2.8986 0 3.20511V30.7946C0.00419862 31.1012 0.0687362 31.4038 0.189927 31.6854C0.311117 31.967 0.486586 32.2219 0.706314 32.4357C0.926041 32.6494 1.18572 32.8178 1.47053 32.9312C1.75533 33.0445 2.05968 33.1007 2.3662 33.0965H29.6338C29.9403 33.1007 30.2447 33.0445 30.5295 32.9312C30.8143 32.8178 31.074 32.6494 31.2937 32.4357C31.5134 32.2219 31.6889 31.967 31.8101 31.6854C31.9313 31.4038 31.9958 31.1012 32 30.7946V3.20511C31.9958 2.8986 31.9313 2.59591 31.8101 2.31434C31.6889 2.03277 31.5134 1.77783 31.2937 1.56409C31.074 1.35034 30.8143 1.18197 30.5295 1.06859C30.2447 0.955209 29.9403 0.899044 29.6338 0.903301ZM9.70624 27.849H4.87726V13.3621H9.70624V27.849ZM7.29175 11.3339C6.62577 11.3339 5.98707 11.0693 5.51616 10.5984C5.04524 10.1275 4.78068 9.48879 4.78068 8.82282C4.78068 8.15684 5.04524 7.51814 5.51616 7.04723C5.98707 6.57631 6.62577 6.31175 7.29175 6.31175C7.64539 6.27165 8.0035 6.30669 8.34266 6.41458C8.68181 6.52248 8.99435 6.70079 9.25981 6.93785C9.52527 7.1749 9.73767 7.46536 9.88309 7.79019C10.0285 8.11503 10.1037 8.46692 10.1037 8.82282C10.1037 9.17872 10.0285 9.53061 9.88309 9.85544C9.73767 10.1803 9.52527 10.4707 9.25981 10.7078C8.99435 10.9448 8.68181 11.1232 8.34266 11.2311C8.0035 11.3389 7.64539 11.374 7.29175 11.3339ZM27.1227 27.849H22.2938V20.0743C22.2938 18.1266 21.6016 16.855 19.8471 16.855C19.3041 16.859 18.7754 17.0293 18.3321 17.343C17.8889 17.6567 17.5525 18.0988 17.3682 18.6095C17.2422 18.9879 17.1877 19.3863 17.2072 19.7846V27.8329H12.3783C12.3783 27.8329 12.3783 14.6659 12.3783 13.346H17.2072V15.3902C17.6459 14.629 18.284 14.0019 19.0526 13.5765C19.8213 13.151 20.6915 12.9433 21.5694 12.9757C24.7887 12.9757 27.1227 15.0522 27.1227 19.5109V27.849Z" fill="currentColor"/>
</svg>
