<svg width="32" height="33" viewBox="0 0 32 33" fill="white" xmlns="http://www.w3.org/2000/svg">
<path d="M15.6465 26.7736L16 27.1271L16.3536 26.7736L23.7403 19.3869C23.9317 19.1955 24.2551 19.1955 24.4465 19.3869C24.6379 19.5783 24.6379 19.9017 24.4465 20.0931L16.3531 28.1865C16.2519 28.2878 16.1279 28.3333 16 28.3333C15.8722 28.3333 15.7482 28.2878 15.6469 28.1865L7.55359 20.0931C7.36218 19.9017 7.36218 19.5783 7.55359 19.3869C7.74499 19.1955 8.06841 19.1955 8.25981 19.3869L15.6465 26.7736Z" fill="white" stroke="white"/>
<path d="M16 28.1067C15.7295 28.1067 15.5 27.8772 15.5 27.6067V5.16669C15.5 4.89616 15.7295 4.66669 16 4.66669C16.2705 4.66669 16.5 4.89616 16.5 5.16669V27.6067C16.5 27.8772 16.2705 28.1067 16 28.1067Z" fill="white" stroke="white"/>
</svg>
