<svg width="32" height="32" viewBox="0 0 32 32" fill="none" xmlns="http://www.w3.org/2000/svg">
<path d="M15.9999 0.394775C12.2007 0.394933 8.52553 1.74695 5.63195 4.2089C2.73837 6.67086 0.81524 10.0821 0.206655 13.8323C-0.401929 17.5824 0.34375 21.4267 2.31027 24.6774C4.27678 27.9281 7.33581 30.3729 10.94 31.5745C11.74 31.7146 12.04 31.2346 12.04 30.8145C12.04 30.4346 12.02 29.1746 12.02 27.8346C7.99999 28.5746 6.96 26.8546 6.64 25.9546C6.28492 25.0793 5.72204 24.3036 5.00001 23.6946C4.44001 23.3946 3.64002 22.6546 4.97999 22.6347C5.49165 22.6902 5.98238 22.8682 6.41061 23.1537C6.83884 23.4392 7.19194 23.8237 7.43999 24.2746C7.65882 24.6677 7.95308 25.0138 8.30589 25.293C8.6587 25.5722 9.06314 25.779 9.49603 25.9016C9.92892 26.0243 10.3817 26.0603 10.8286 26.0076C11.2754 25.9549 11.7074 25.8145 12.0999 25.5946C12.1692 24.7812 12.5317 24.0207 13.12 23.4547C9.55998 23.0547 5.84 21.6746 5.84 15.5547C5.81752 13.9646 6.4043 12.4261 7.47999 11.2547C6.99085 9.87271 7.04808 8.35602 7.63999 7.01478C7.63999 7.01478 8.97993 6.59476 12.04 8.65477C14.658 7.93473 17.4219 7.93473 20.0399 8.65477C23.0999 6.57478 24.4399 7.01478 24.4399 7.01478C25.0319 8.356 25.0891 9.87272 24.5999 11.2547C25.6788 12.4241 26.2661 13.9639 26.2399 15.5547C26.2399 21.6946 22.4999 23.0547 18.9399 23.4547C19.3217 23.8417 19.6158 24.3063 19.8022 24.8171C19.9885 25.3278 20.0628 25.8727 20.0199 26.4146C20.0199 28.5547 19.9999 30.2746 19.9999 30.8146C19.9999 31.2346 20.2999 31.7346 21.0999 31.5746C24.6977 30.3632 27.748 27.9126 29.7061 24.6603C31.6642 21.408 32.4028 17.5656 31.79 13.8191C31.1772 10.0725 29.2529 6.66573 26.3606 4.20677C23.4683 1.74781 19.7962 0.396751 15.9999 0.394775Z" fill="white"/>
</svg>
