<?xml version="1.0" encoding="utf-8"?><svg xmlns="http://www.w3.org/2000/svg" xmlns:xlink="http://www.w3.org/1999/xlink"><symbol fill="currentColor" viewBox="0 0 32 33" id="arrow-down" xmlns="http://www.w3.org/2000/svg"><path d="m15.646 26.774.354.353.354-.353 7.386-7.387a.506.506 0 0 1 .707 0 .506.506 0 0 1 0 .706l-8.094 8.093a.489.489 0 0 1-.353.147.49.49 0 0 1-.353-.146l-8.093-8.094a.506.506 0 0 1 0-.706.506.506 0 0 1 .706 0l7.386 7.387Z" stroke="currentColor"/><path d="M16 28.107c-.27 0-.5-.23-.5-.5V5.167c0-.27.23-.5.5-.5s.5.23.5.5v22.44c0 .27-.23.5-.5.5Z" stroke="currentColor"/></symbol><symbol fill="none" viewBox="0 0 32 32" id="github" xmlns="http://www.w3.org/2000/svg"><path d="M16 .395a16 16 0 0 0-5.06 31.18c.8.14 1.1-.34 1.1-.76 0-.38-.02-1.64-.02-2.98-4.02.74-5.06-.98-5.38-1.88A5.817 5.817 0 0 0 5 23.695c-.56-.3-1.36-1.04-.02-1.06a3.201 3.201 0 0 1 2.46 1.64 3.42 3.42 0 0 0 4.66 1.32 3.366 3.366 0 0 1 1.02-2.14c-3.56-.4-7.28-1.78-7.28-7.9a6.227 6.227 0 0 1 1.64-4.3 5.75 5.75 0 0 1 .16-4.24s1.34-.42 4.4 1.64c2.618-.72 5.382-.72 8 0 3.06-2.08 4.4-1.64 4.4-1.64a5.75 5.75 0 0 1 .16 4.24 6.19 6.19 0 0 1 1.64 4.3c0 6.14-3.74 7.5-7.3 7.9a3.79 3.79 0 0 1 1.08 2.96c0 2.14-.02 3.86-.02 4.4 0 .42.3.92 1.1.76A16.008 16.008 0 0 0 16 .395Z" fill="currentColor"/></symbol><symbol fill="none" viewBox="0 0 32 34" id="linkedin" xmlns="http://www.w3.org/2000/svg"><path d="M29.634.903H2.366A2.334 2.334 0 0 0 0 3.205v27.59a2.334 2.334 0 0 0 2.366 2.301h27.268A2.337 2.337 0 0 0 32 30.795V3.205A2.334 2.334 0 0 0 29.634.903ZM9.706 27.85H4.877V13.362h4.83V27.85ZM7.292 11.334a2.511 2.511 0 0 1 0-5.022 2.527 2.527 0 1 1 0 5.022Zm19.83 16.515h-4.828v-7.775c0-1.947-.692-3.219-2.447-3.219a2.657 2.657 0 0 0-2.479 1.755 3.22 3.22 0 0 0-.16 1.175v8.048h-4.83V13.346h4.83v2.044a4.829 4.829 0 0 1 4.361-2.414c3.22 0 5.554 2.076 5.554 6.535v8.338Z" fill="currentColor"/></symbol></svg>